<svg width="60" height="60" viewBox="0 0 60 60" fill="none" xmlns="http://www.w3.org/2000/svg">
<rect width="60" height="60" rx="30" fill="#121212"/>
<path d="M43.0695 24.1897L42.7005 25.0387C42.6428 25.177 42.5456 25.2951 42.4209 25.3781C42.2963 25.4612 42.1498 25.5055 42 25.5055C41.8502 25.5055 41.7038 25.4612 41.5791 25.3781C41.4545 25.2951 41.3572 25.177 41.2995 25.0387L40.9305 24.1897C40.2817 22.6878 39.0936 21.4836 37.6005 20.8147L36.462 20.3062C36.3239 20.2427 36.2069 20.1409 36.1249 20.0129C36.0428 19.8848 35.9992 19.736 35.9992 19.584C35.9992 19.4319 36.0428 19.2831 36.1249 19.1551C36.2069 19.0271 36.3239 18.9253 36.462 18.8617L37.5375 18.3832C39.0681 17.6953 40.2766 16.4465 40.914 14.8942L41.2935 13.9777C41.3493 13.8357 41.4465 13.7139 41.5725 13.628C41.6985 13.542 41.8475 13.4961 42 13.4961C42.1525 13.4961 42.3015 13.542 42.4275 13.628C42.5536 13.7139 42.6508 13.8357 42.7065 13.9777L43.086 14.8927C43.7228 16.4453 44.9307 17.6946 46.461 18.3832L47.538 18.8632C47.6757 18.9269 47.7923 19.0287 47.874 19.1566C47.9557 19.2844 47.9992 19.433 47.9992 19.5847C47.9992 19.7364 47.9557 19.885 47.874 20.0129C47.7923 20.1407 47.6757 20.2425 47.538 20.3062L46.398 20.8132C44.9052 21.4828 43.7176 22.6875 43.0695 24.1897ZM42 28.4977C43.005 28.4977 43.9695 28.3327 44.8725 28.0297C44.9575 28.6747 45 29.3307 45 29.9977C45 38.2822 38.2845 44.9977 30 44.9977C27.5361 45.0012 25.1095 44.3952 22.9365 43.2337L15 44.9977L16.764 37.0612C15.6025 34.8882 14.9966 32.4617 15 29.9977C15 21.7132 21.7155 14.9977 30 14.9977C31.359 14.9977 32.6745 15.1777 33.9255 15.5167C33.2487 16.8891 32.9329 18.4113 33.008 19.9397C33.0832 21.4681 33.5468 22.952 34.355 24.2513C35.1632 25.5507 36.2894 26.6225 37.6271 27.3655C38.9648 28.1085 40.4698 28.4982 42 28.4977ZM22.5 29.9977C22.5 31.9868 23.2902 33.8945 24.6967 35.301C26.1032 36.7075 28.0109 37.4977 30 37.4977C31.9891 37.4977 33.8968 36.7075 35.3033 35.301C36.7098 33.8945 37.5 31.9868 37.5 29.9977H34.5C34.5 31.1912 34.0259 32.3358 33.182 33.1797C32.3381 34.0236 31.1935 34.4977 30 34.4977C28.8065 34.4977 27.6619 34.0236 26.818 33.1797C25.9741 32.3358 25.5 31.1912 25.5 29.9977H22.5Z" fill="white"/>
</svg>
