<svg width="21" height="20" viewBox="0 0 21 20" fill="none" xmlns="http://www.w3.org/2000/svg">
    <path fill-rule="evenodd" clip-rule="evenodd" d="M5.32499 0.480469H1.84899L1.00199 13.2405C0.950722 13.9926 1.05465 14.7473 1.3073 15.4577C1.55996 16.168 1.95596 16.8188 2.47071 17.3696C2.98545 17.9205 3.60795 18.3596 4.29955 18.6598C4.99115 18.9599 5.73707 19.1147 6.49099 19.1145H14.609C15.3619 19.1146 16.1069 18.9601 16.7977 18.6607C17.4885 18.3612 18.1104 17.923 18.625 17.3734C19.1396 16.8237 19.5359 16.1743 19.7892 15.4653C20.0426 14.7563 20.1477 14.0028 20.098 13.2515L19.24 0.480469H5.32499ZM5.32499 1.58047H2.88299L2.10199 13.3175C2.0613 13.9188 2.14461 14.5222 2.34675 15.09C2.54888 15.6579 2.86554 16.1781 3.27706 16.6185C3.68859 17.059 4.18622 17.4101 4.73908 17.6502C5.29193 17.8904 5.88823 18.0143 6.49099 18.0145H14.609C15.2127 18.0158 15.8102 17.893 16.3643 17.6535C16.9185 17.4141 17.4174 17.0631 17.8302 16.6226C18.2429 16.182 18.5605 15.6612 18.7633 15.0926C18.9661 14.524 19.0497 13.9198 19.009 13.3175L18.217 1.58047H15.775V2.27347C15.775 2.95963 15.6398 3.63906 15.3773 4.27299C15.1147 4.90692 14.7298 5.48292 14.2446 5.9681C13.7594 6.45329 13.1834 6.83816 12.5495 7.10074C11.9156 7.36332 11.2361 7.49847 10.55 7.49847C9.86383 7.49847 9.18439 7.36332 8.55047 7.10074C7.91654 6.83816 7.34054 6.45329 6.85536 5.9681C6.37017 5.48292 5.9853 4.90692 5.72272 4.27299C5.46014 3.63906 5.32499 2.95963 5.32499 2.27347V1.58047ZM14.675 1.58047H6.42499V2.27347C6.42499 3.36749 6.85959 4.4167 7.63317 5.19028C8.40676 5.96387 9.45597 6.39847 10.55 6.39847C11.644 6.39847 12.6932 5.96387 13.4668 5.19028C14.2404 4.4167 14.675 3.36749 14.675 2.27347V1.58047Z" fill="white"/>
    </svg>
    