<svg width="20" height="21" viewBox="0 0 20 21" fill="none" xmlns="http://www.w3.org/2000/svg">
    <path d="M1.11122 2.16602C0.963877 2.16602 0.822569 2.22455 0.718382 2.32873C0.614196 2.43292 0.555664 2.57423 0.555664 2.72157C0.555664 2.86891 0.614196 3.01022 0.718382 3.11441C0.822569 3.2186 0.963877 3.27713 1.11122 3.27713H18.5668C18.7141 3.27713 18.8554 3.2186 18.9596 3.11441C19.0638 3.01022 19.1223 2.86891 19.1223 2.72157C19.1223 2.57423 19.0638 2.43292 18.9596 2.32873C18.8554 2.22455 18.7141 2.16602 18.5668 2.16602H1.11122ZM0.555664 10.4993C0.555664 10.352 0.614196 10.2107 0.718382 10.1065C0.822569 10.0023 0.963877 9.94379 1.11122 9.94379H18.5668C18.7141 9.94379 18.8554 10.0023 18.9596 10.1065C19.0638 10.2107 19.1223 10.352 19.1223 10.4993C19.1223 10.6467 19.0638 10.788 18.9596 10.8922C18.8554 10.9964 18.7141 11.0549 18.5668 11.0549H1.11122C0.963877 11.0549 0.822569 10.9964 0.718382 10.8922C0.614196 10.788 0.555664 10.6467 0.555664 10.4993ZM0.555664 18.2771C0.555664 18.1298 0.614196 17.9885 0.718382 17.8843C0.822569 17.7801 0.963877 17.7216 1.11122 17.7216H18.5668C18.7141 17.7216 18.8554 17.7801 18.9596 17.8843C19.0638 17.9885 19.1223 18.1298 19.1223 18.2771C19.1223 18.4245 19.0638 18.5658 18.9596 18.67C18.8554 18.7742 18.7141 18.8327 18.5668 18.8327H1.11122C0.963877 18.8327 0.822569 18.7742 0.718382 18.67C0.614196 18.5658 0.555664 18.4245 0.555664 18.2771Z" fill="white"/>
    </svg>
    