<svg width="20" height="19" viewBox="0 0 20 19" fill="none" xmlns="http://www.w3.org/2000/svg">
    <path fill-rule="evenodd" clip-rule="evenodd" d="M12.1369 11.7946C11.5715 12.36 10.9003 12.8084 10.1616 13.1144C9.42293 13.4204 8.6312 13.5779 7.83164 13.5779C7.03207 13.5779 6.24034 13.4204 5.50164 13.1144C4.76295 12.8084 4.09175 12.36 3.52637 11.7946C2.961 11.2292 2.51252 10.558 2.20654 9.81931C1.90056 9.08061 1.74307 8.28888 1.74307 7.48932C1.74307 6.68975 1.90056 5.89802 2.20654 5.15932C2.51252 4.42063 2.961 3.74943 3.52637 3.18405C4.6682 2.04223 6.21685 1.40075 7.83164 1.40075C9.44642 1.40075 10.9951 2.04223 12.1369 3.18405C13.2787 4.32588 13.9202 5.87453 13.9202 7.48932C13.9202 9.1041 13.2787 10.6528 12.1369 11.7946ZM12.4106 12.9735C10.9946 14.1594 9.17393 14.7502 7.33139 14.6216C5.48885 14.493 3.76792 13.6551 2.53035 12.284C1.29278 10.9129 0.634977 9.11539 0.695206 7.26935C0.755434 5.42331 1.52901 3.67252 2.85331 2.385C4.17762 1.09748 5.94951 0.373519 7.79651 0.365305C9.64352 0.357091 11.4218 1.06526 12.7575 2.34095C14.0932 3.61664 14.8823 5.36049 14.9589 7.20592C15.0356 9.05135 14.3938 10.8546 13.1685 12.2367L18.8527 17.9209C18.9074 17.9685 18.9517 18.0269 18.9828 18.0924C19.0139 18.1579 19.0312 18.2291 19.0334 18.3016C19.0357 18.3741 19.023 18.4463 18.996 18.5136C18.9691 18.5809 18.9285 18.642 18.8769 18.6929C18.8253 18.7438 18.7636 18.7835 18.6959 18.8095C18.6282 18.8355 18.5559 18.8472 18.4834 18.8439C18.411 18.8406 18.34 18.8223 18.2749 18.7903C18.2099 18.7583 18.1521 18.7131 18.1053 18.6577L12.4106 12.9735Z" fill="white"/>
    </svg>
    